# xmcd
#
# Track frame offsets:
#       150
#       14810
#       24502
#       34670
#       50402
#       62292
#       77414
#       90037
#       102256
#       118321
#       127636
#       144814
#       156042
#       169574
#
# Disc length: 2509 seconds
#
# Revision: 1
# Processed by: cddbd v1.4PL0 Copyright (c) Steve Scherf et al.
# Submitted via: MusiCat 1.1
#
DISCID=9809cb0e
DTITLE=Lagwagon - Blaze
DYEAR=1900
DGENRE=
TTITLE0=Burn
TTITLE1=E Dagger
TTITLE2=Dancing the collapse
TTITLE3=I must be hateful
TTITLE4=Falling apart
TTITLE5=Max says
TTITLE6=Billy club
TTITLE7=Dividers
TTITLE8=Never stops
TTITLE9=Dinner and a movie
TTITLE10=Lullaby
TTITLE11=Billionaire
TTITLE12=Heartbreak
TTITLE13=Baggage
EXTD=0\n\n\n
EXTT0=
EXTT1=
EXTT2=
EXTT3=
EXTT4=
EXTT5=
EXTT6=
EXTT7=
EXTT8=
EXTT9=
EXTT10=
EXTT11=
EXTT12=
EXTT13=
PLAYORDER=
